<svg xmlns="http://www.w3.org/2000/svg" viewBox="0 0 780 200" width="780" height="200">
<style>text{font-family:"Source Sans 3",Arial,Helvetica,sans-serif}</style>
<rect width="780" height="200" fill="#fafaf8"/>
<rect x="15" y="5" width="175" height="190" rx="6" fill="white" stroke="#e2e0dc"/>
<text x="102" y="22" text-anchor="middle" font-size="10" font-weight="700" fill="#1a1a2e">Type I: Isolated</text>
<text x="102" y="35" text-anchor="middle" font-size="8" fill="#888">Far from all clusters</text>
<circle cx="70.7" cy="82.4" r="2.5" fill="#2563eb" opacity="0.5"/>
<circle cx="72.4" cy="104.3" r="2.5" fill="#2563eb" opacity="0.5"/>
<circle cx="62.6" cy="81.2" r="2.5" fill="#2563eb" opacity="0.5"/>
<circle cx="82.8" cy="94.3" r="2.5" fill="#2563eb" opacity="0.5"/>
<circle cx="60.0" cy="91.4" r="2.5" fill="#2563eb" opacity="0.5"/>
<circle cx="60.1" cy="78.1" r="2.5" fill="#2563eb" opacity="0.5"/>
<circle cx="67.9" cy="59.1" r="2.5" fill="#2563eb" opacity="0.5"/>
<circle cx="46.0" cy="76.9" r="2.5" fill="#2563eb" opacity="0.5"/>
<circle cx="54.0" cy="88.4" r="2.5" fill="#2563eb" opacity="0.5"/>
<circle cx="55.1" cy="65.7" r="2.5" fill="#2563eb" opacity="0.5"/>
<circle cx="81.5" cy="81.3" r="2.5" fill="#2563eb" opacity="0.5"/>
<circle cx="66.0" cy="65.5" r="2.5" fill="#2563eb" opacity="0.5"/>
<circle cx="59.2" cy="85.7" r="2.5" fill="#2563eb" opacity="0.5"/>
<circle cx="52.4" cy="89.2" r="2.5" fill="#2563eb" opacity="0.5"/>
<circle cx="58.5" cy="80.4" r="2.5" fill="#2563eb" opacity="0.5"/>
<circle cx="58.5" cy="108.6" r="2.5" fill="#2563eb" opacity="0.5"/>
<circle cx="65.1" cy="70.4" r="2.5" fill="#2563eb" opacity="0.5"/>
<circle cx="74.3" cy="68.2" r="2.5" fill="#2563eb" opacity="0.5"/>
<circle cx="67.5" cy="58.5" r="2.5" fill="#2563eb" opacity="0.5"/>
<circle cx="50.5" cy="86.8" r="2.5" fill="#2563eb" opacity="0.5"/>
<circle cx="73.4" cy="86.5" r="2.5" fill="#2563eb" opacity="0.5"/>
<circle cx="63.9" cy="80.3" r="2.5" fill="#2563eb" opacity="0.5"/>
<circle cx="48.8" cy="74.8" r="2.5" fill="#2563eb" opacity="0.5"/>
<circle cx="60.1" cy="98.1" r="2.5" fill="#2563eb" opacity="0.5"/>
<circle cx="69.0" cy="61.1" r="2.5" fill="#2563eb" opacity="0.5"/>
<circle cx="68.8" cy="79.2" r="2.5" fill="#2563eb" opacity="0.5"/>
<circle cx="57.7" cy="92.3" r="2.5" fill="#2563eb" opacity="0.5"/>
<circle cx="76.7" cy="96.5" r="2.5" fill="#2563eb" opacity="0.5"/>
<circle cx="55.9" cy="80.2" r="2.5" fill="#2563eb" opacity="0.5"/>
<circle cx="68.9" cy="97.1" r="2.5" fill="#2563eb" opacity="0.5"/>
<circle cx="59.9" cy="81.8" r="2.5" fill="#2563eb" opacity="0.5"/>
<circle cx="52.9" cy="68.5" r="2.5" fill="#2563eb" opacity="0.5"/>
<circle cx="74.2" cy="102.1" r="2.5" fill="#2563eb" opacity="0.5"/>
<circle cx="64.4" cy="97.4" r="2.5" fill="#2563eb" opacity="0.5"/>
<circle cx="69.2" cy="75.8" r="2.5" fill="#2563eb" opacity="0.5"/>
<circle cx="69.2" cy="104.5" r="2.5" fill="#2563eb" opacity="0.5"/>
<circle cx="64.8" cy="104.8" r="2.5" fill="#2563eb" opacity="0.5"/>
<circle cx="36.1" cy="95.1" r="2.5" fill="#2563eb" opacity="0.5"/>
<circle cx="66.2" cy="80.3" r="2.5" fill="#2563eb" opacity="0.5"/>
<circle cx="66.2" cy="58.1" r="2.5" fill="#2563eb" opacity="0.5"/>
<circle cx="157.8" cy="171.9" r="3.5" fill="#dc2626" opacity="0.8"/>
<circle cx="157.8" cy="171.9" r="5" fill="none" stroke="#dc2626" stroke-width="0.8" opacity="0.4"/>
<circle cx="168.9" cy="163.1" r="3.5" fill="#dc2626" opacity="0.8"/>
<circle cx="168.9" cy="163.1" r="5" fill="none" stroke="#dc2626" stroke-width="0.8" opacity="0.4"/>
<rect x="203" y="5" width="175" height="190" rx="6" fill="white" stroke="#e2e0dc"/>
<text x="290" y="22" text-anchor="middle" font-size="10" font-weight="700" fill="#1a1a2e">Type II: Boundary</text>
<text x="290" y="35" text-anchor="middle" font-size="8" fill="#888">Bridge between clusters</text>
<circle cx="246.6" cy="111.6" r="2.5" fill="#2563eb" opacity="0.5"/>
<circle cx="267.7" cy="90.9" r="2.5" fill="#2563eb" opacity="0.5"/>
<circle cx="239.3" cy="91.3" r="2.5" fill="#2563eb" opacity="0.5"/>
<circle cx="260.7" cy="111.0" r="2.5" fill="#2563eb" opacity="0.5"/>
<circle cx="242.7" cy="115.3" r="2.5" fill="#2563eb" opacity="0.5"/>
<circle cx="250.5" cy="126.1" r="2.5" fill="#2563eb" opacity="0.5"/>
<circle cx="240.6" cy="95.5" r="2.5" fill="#2563eb" opacity="0.5"/>
<circle cx="244.5" cy="68.6" r="2.5" fill="#2563eb" opacity="0.5"/>
<circle cx="253.0" cy="109.4" r="2.5" fill="#2563eb" opacity="0.5"/>
<circle cx="249.4" cy="97.7" r="2.5" fill="#2563eb" opacity="0.5"/>
<circle cx="231.7" cy="93.3" r="2.5" fill="#2563eb" opacity="0.5"/>
<circle cx="245.1" cy="84.2" r="2.5" fill="#2563eb" opacity="0.5"/>
<circle cx="247.3" cy="112.7" r="2.5" fill="#2563eb" opacity="0.5"/>
<circle cx="272.8" cy="107.3" r="2.5" fill="#2563eb" opacity="0.5"/>
<circle cx="252.5" cy="101.4" r="2.5" fill="#2563eb" opacity="0.5"/>
<circle cx="225.4" cy="102.6" r="2.5" fill="#2563eb" opacity="0.5"/>
<circle cx="250.1" cy="161.4" r="2.5" fill="#2563eb" opacity="0.5"/>
<circle cx="246.9" cy="110.3" r="2.5" fill="#2563eb" opacity="0.5"/>
<circle cx="248.9" cy="75.6" r="2.5" fill="#2563eb" opacity="0.5"/>
<circle cx="263.6" cy="121.0" r="2.5" fill="#2563eb" opacity="0.5"/>
<circle cx="342.2" cy="81.7" r="2.5" fill="#2563eb" opacity="0.5"/>
<circle cx="349.8" cy="70.1" r="2.5" fill="#2563eb" opacity="0.5"/>
<circle cx="339.6" cy="154.9" r="2.5" fill="#2563eb" opacity="0.5"/>
<circle cx="320.0" cy="89.8" r="2.5" fill="#2563eb" opacity="0.5"/>
<circle cx="333.6" cy="91.3" r="2.5" fill="#2563eb" opacity="0.5"/>
<circle cx="313.0" cy="104.8" r="2.5" fill="#2563eb" opacity="0.5"/>
<circle cx="319.1" cy="114.4" r="2.5" fill="#2563eb" opacity="0.5"/>
<circle cx="320.9" cy="139.8" r="2.5" fill="#2563eb" opacity="0.5"/>
<circle cx="322.6" cy="95.6" r="2.5" fill="#2563eb" opacity="0.5"/>
<circle cx="342.5" cy="74.1" r="2.5" fill="#2563eb" opacity="0.5"/>
<circle cx="335.2" cy="134.1" r="2.5" fill="#2563eb" opacity="0.5"/>
<circle cx="312.3" cy="107.6" r="2.5" fill="#2563eb" opacity="0.5"/>
<circle cx="335.6" cy="121.7" r="2.5" fill="#2563eb" opacity="0.5"/>
<circle cx="316.9" cy="72.0" r="2.5" fill="#2563eb" opacity="0.5"/>
<circle cx="338.8" cy="110.2" r="2.5" fill="#2563eb" opacity="0.5"/>
<circle cx="335.4" cy="111.4" r="2.5" fill="#2563eb" opacity="0.5"/>
<circle cx="323.9" cy="108.7" r="2.5" fill="#2563eb" opacity="0.5"/>
<circle cx="336.0" cy="86.3" r="2.5" fill="#2563eb" opacity="0.5"/>
<circle cx="355.6" cy="114.4" r="2.5" fill="#2563eb" opacity="0.5"/>
<circle cx="317.5" cy="118.7" r="2.5" fill="#2563eb" opacity="0.5"/>
<circle cx="290.8" cy="103.2" r="3.5" fill="#dc2626" opacity="0.8"/>
<circle cx="290.8" cy="103.2" r="5" fill="none" stroke="#dc2626" stroke-width="0.8" opacity="0.4"/>
<circle cx="282.5" cy="111.1" r="3.5" fill="#dc2626" opacity="0.8"/>
<circle cx="282.5" cy="111.1" r="5" fill="none" stroke="#dc2626" stroke-width="0.8" opacity="0.4"/>
<circle cx="299.1" cy="95.3" r="3.5" fill="#dc2626" opacity="0.8"/>
<circle cx="299.1" cy="95.3" r="5" fill="none" stroke="#dc2626" stroke-width="0.8" opacity="0.4"/>
<rect x="391" y="5" width="175" height="190" rx="6" fill="white" stroke="#e2e0dc"/>
<text x="478" y="22" text-anchor="middle" font-size="10" font-weight="700" fill="#1a1a2e">Type III: Structural</text>
<text x="478" y="35" text-anchor="middle" font-size="8" fill="#888">Inside topological hole</text>
<circle cx="462.8" cy="169.7" r="2.5" fill="#2563eb" opacity="0.5"/>
<circle cx="484.1" cy="94.2" r="2.5" fill="#2563eb" opacity="0.5"/>
<circle cx="447.8" cy="91.7" r="2.5" fill="#2563eb" opacity="0.5"/>
<circle cx="477.2" cy="57.6" r="2.5" fill="#2563eb" opacity="0.5"/>
<circle cx="438.8" cy="89.5" r="2.5" fill="#2563eb" opacity="0.5"/>
<circle cx="518.1" cy="151.1" r="2.5" fill="#2563eb" opacity="0.5"/>
<circle cx="441.6" cy="75.0" r="2.5" fill="#2563eb" opacity="0.5"/>
<circle cx="417.2" cy="111.9" r="2.5" fill="#2563eb" opacity="0.5"/>
<circle cx="534.8" cy="163.3" r="2.5" fill="#2563eb" opacity="0.5"/>
<circle cx="433.1" cy="108.7" r="2.5" fill="#2563eb" opacity="0.5"/>
<circle cx="472.2" cy="72.8" r="2.5" fill="#2563eb" opacity="0.5"/>
<circle cx="481.2" cy="54.2" r="2.5" fill="#2563eb" opacity="0.5"/>
<circle cx="545.2" cy="57.5" r="2.5" fill="#2563eb" opacity="0.5"/>
<circle cx="425.8" cy="56.9" r="2.5" fill="#2563eb" opacity="0.5"/>
<circle cx="531.2" cy="163.4" r="2.5" fill="#2563eb" opacity="0.5"/>
<circle cx="432.8" cy="175.1" r="2.5" fill="#2563eb" opacity="0.5"/>
<circle cx="497.4" cy="58.4" r="2.5" fill="#2563eb" opacity="0.5"/>
<circle cx="411.1" cy="58.5" r="2.5" fill="#2563eb" opacity="0.5"/>
<circle cx="418.9" cy="70.1" r="2.5" fill="#2563eb" opacity="0.5"/>
<circle cx="411.2" cy="83.8" r="2.5" fill="#2563eb" opacity="0.5"/>
<circle cx="501.4" cy="111.4" r="2.5" fill="#2563eb" opacity="0.5"/>
<circle cx="467.0" cy="115.2" r="2.5" fill="#2563eb" opacity="0.5"/>
<circle cx="465.7" cy="57.0" r="2.5" fill="#2563eb" opacity="0.5"/>
<circle cx="545.4" cy="65.9" r="2.5" fill="#2563eb" opacity="0.5"/>
<circle cx="437.4" cy="56.9" r="2.5" fill="#2563eb" opacity="0.5"/>
<circle cx="508.5" cy="56.7" r="2.5" fill="#2563eb" opacity="0.5"/>
<circle cx="541.5" cy="76.5" r="2.5" fill="#2563eb" opacity="0.5"/>
<circle cx="543.4" cy="168.2" r="2.5" fill="#2563eb" opacity="0.5"/>
<circle cx="536.8" cy="159.2" r="2.5" fill="#2563eb" opacity="0.5"/>
<circle cx="432.4" cy="150.1" r="2.5" fill="#2563eb" opacity="0.5"/>
<circle cx="545.9" cy="86.7" r="2.5" fill="#2563eb" opacity="0.5"/>
<circle cx="539.5" cy="129.6" r="2.5" fill="#2563eb" opacity="0.5"/>
<circle cx="417.9" cy="129.0" r="2.5" fill="#2563eb" opacity="0.5"/>
<circle cx="544.7" cy="99.4" r="2.5" fill="#2563eb" opacity="0.5"/>
<circle cx="544.4" cy="175.8" r="2.5" fill="#2563eb" opacity="0.5"/>
<circle cx="519.4" cy="82.5" r="2.5" fill="#2563eb" opacity="0.5"/>
<circle cx="460.0" cy="127.5" r="2.5" fill="#2563eb" opacity="0.5"/>
<circle cx="428.0" cy="130.1" r="2.5" fill="#2563eb" opacity="0.5"/>
<circle cx="518.7" cy="60.4" r="2.5" fill="#2563eb" opacity="0.5"/>
<circle cx="451.1" cy="163.2" r="2.5" fill="#2563eb" opacity="0.5"/>
<circle cx="490.4" cy="130.8" r="3.5" fill="#dc2626" opacity="0.8"/>
<circle cx="490.4" cy="130.8" r="5" fill="none" stroke="#dc2626" stroke-width="0.8" opacity="0.4"/>
<circle cx="461.9" cy="105.0" r="3.5" fill="#dc2626" opacity="0.8"/>
<circle cx="461.9" cy="105.0" r="5" fill="none" stroke="#dc2626" stroke-width="0.8" opacity="0.4"/>
<circle cx="480.8" cy="123.6" r="3.5" fill="#dc2626" opacity="0.8"/>
<circle cx="480.8" cy="123.6" r="5" fill="none" stroke="#dc2626" stroke-width="0.8" opacity="0.4"/>
<rect x="579" y="5" width="175" height="190" rx="6" fill="white" stroke="#e2e0dc"/>
<text x="666" y="22" text-anchor="middle" font-size="10" font-weight="700" fill="#1a1a2e">Type IV: Subspace</text>
<text x="666" y="35" text-anchor="middle" font-size="8" fill="#888">Anomalous in subset</text>
<circle cx="681.9" cy="102.6" r="2.5" fill="#2563eb" opacity="0.5"/>
<circle cx="736.2" cy="116.4" r="2.5" fill="#2563eb" opacity="0.5"/>
<circle cx="628.3" cy="111.6" r="2.5" fill="#2563eb" opacity="0.5"/>
<circle cx="663.6" cy="118.8" r="2.5" fill="#2563eb" opacity="0.5"/>
<circle cx="660.2" cy="108.4" r="2.5" fill="#2563eb" opacity="0.5"/>
<circle cx="693.8" cy="118.9" r="2.5" fill="#2563eb" opacity="0.5"/>
<circle cx="649.6" cy="106.0" r="2.5" fill="#2563eb" opacity="0.5"/>
<circle cx="668.4" cy="102.6" r="2.5" fill="#2563eb" opacity="0.5"/>
<circle cx="726.4" cy="114.0" r="2.5" fill="#2563eb" opacity="0.5"/>
<circle cx="648.1" cy="119.5" r="2.5" fill="#2563eb" opacity="0.5"/>
<circle cx="735.7" cy="120.7" r="2.5" fill="#2563eb" opacity="0.5"/>
<circle cx="641.4" cy="104.4" r="2.5" fill="#2563eb" opacity="0.5"/>
<circle cx="713.5" cy="102.0" r="2.5" fill="#2563eb" opacity="0.5"/>
<circle cx="692.2" cy="118.0" r="2.5" fill="#2563eb" opacity="0.5"/>
<circle cx="656.7" cy="109.0" r="2.5" fill="#2563eb" opacity="0.5"/>
<circle cx="596.8" cy="98.6" r="2.5" fill="#2563eb" opacity="0.5"/>
<circle cx="674.2" cy="96.2" r="2.5" fill="#2563eb" opacity="0.5"/>
<circle cx="723.0" cy="94.2" r="2.5" fill="#2563eb" opacity="0.5"/>
<circle cx="669.3" cy="111.0" r="2.5" fill="#2563eb" opacity="0.5"/>
<circle cx="718.0" cy="94.2" r="2.5" fill="#2563eb" opacity="0.5"/>
<circle cx="710.8" cy="109.7" r="2.5" fill="#2563eb" opacity="0.5"/>
<circle cx="655.3" cy="114.6" r="2.5" fill="#2563eb" opacity="0.5"/>
<circle cx="685.9" cy="103.2" r="2.5" fill="#2563eb" opacity="0.5"/>
<circle cx="682.5" cy="105.5" r="2.5" fill="#2563eb" opacity="0.5"/>
<circle cx="683.6" cy="116.7" r="2.5" fill="#2563eb" opacity="0.5"/>
<circle cx="721.8" cy="96.3" r="2.5" fill="#2563eb" opacity="0.5"/>
<circle cx="735.9" cy="88.6" r="2.5" fill="#2563eb" opacity="0.5"/>
<circle cx="676.8" cy="116.0" r="2.5" fill="#2563eb" opacity="0.5"/>
<circle cx="688.0" cy="102.9" r="2.5" fill="#2563eb" opacity="0.5"/>
<circle cx="675.3" cy="104.3" r="2.5" fill="#2563eb" opacity="0.5"/>
<circle cx="665.4" cy="118.8" r="2.5" fill="#2563eb" opacity="0.5"/>
<circle cx="690.0" cy="102.2" r="2.5" fill="#2563eb" opacity="0.5"/>
<circle cx="704.0" cy="112.9" r="2.5" fill="#2563eb" opacity="0.5"/>
<circle cx="701.8" cy="116.4" r="2.5" fill="#2563eb" opacity="0.5"/>
<circle cx="659.2" cy="103.6" r="2.5" fill="#2563eb" opacity="0.5"/>
<circle cx="700.1" cy="116.2" r="2.5" fill="#2563eb" opacity="0.5"/>
<circle cx="680.2" cy="110.9" r="2.5" fill="#2563eb" opacity="0.5"/>
<circle cx="713.8" cy="103.2" r="2.5" fill="#2563eb" opacity="0.5"/>
<circle cx="694.9" cy="107.4" r="2.5" fill="#2563eb" opacity="0.5"/>
<circle cx="675.1" cy="121.4" r="2.5" fill="#2563eb" opacity="0.5"/>
<circle cx="683.3" cy="174.2" r="3.5" fill="#dc2626" opacity="0.8"/>
<circle cx="683.3" cy="174.2" r="5" fill="none" stroke="#dc2626" stroke-width="0.8" opacity="0.4"/>
<circle cx="675.5" cy="55.8" r="3.5" fill="#dc2626" opacity="0.8"/>
<circle cx="675.5" cy="55.8" r="5" fill="none" stroke="#dc2626" stroke-width="0.8" opacity="0.4"/>
</svg>